<svg width="28" height="36" viewBox="0 0 28 36" fill="none" xmlns="http://www.w3.org/2000/svg">
<path d="M7.06384 7.65352L6.99377 7.6538C4.83647 7.66253 2.67836 7.65152 0.52153 7.64052C0.406171 7.63993 0.290815 7.63934 0.175463 7.63876C0.101753 12.5582 0.102713 17.4777 0.103673 22.3979C0.104053 24.3406 0.104432 26.2834 0.100215 28.2264C2.63898 28.302 5.18 28.2942 7.72149 28.2864C8.52611 28.284 9.33077 28.2815 10.1354 28.2817L10.2343 28.2817L10.2354 28.3806C10.2491 29.6036 10.2449 30.8266 10.2408 32.0489L10.2404 32.1667C10.2362 33.3956 10.2327 34.6237 10.2478 35.8514C12.4108 35.8599 14.5755 35.8585 16.7407 35.8571C20.424 35.8546 24.1084 35.8522 27.7871 35.8987C27.7882 35.5462 27.7896 35.1936 27.791 34.8411C27.7968 33.3774 27.8026 31.9141 27.7905 30.4512C26.4893 30.4415 25.1851 30.4442 23.8804 30.4468C21.6717 30.4513 19.4613 30.4558 17.2607 30.4006L17.1642 30.3982L17.1632 30.3016C17.1564 29.6002 17.1789 28.9001 17.213 28.2019L17.2171 28.1192L17.2991 28.1078C22.8768 27.3307 27.4611 23.378 27.8201 18.902C26.5065 18.9055 25.1946 18.8935 23.8835 18.8815L23.7115 18.8799C22.307 18.8671 20.9033 18.8551 19.4978 18.8628L19.4973 18.8628C17.8471 18.8644 16.2548 18.465 14.756 17.9776C14.8124 20.8429 14.7847 23.7143 14.757 26.5853C14.7385 28.4975 14.7201 30.4094 14.7265 32.3192C16.2676 32.3526 17.8115 32.3449 19.3569 32.3371C19.5711 32.3361 19.7854 32.335 19.9996 32.334C21.7915 32.326 23.5844 32.3256 25.3722 32.3972L25.4958 32.4021L25.4651 32.5219C25.375 32.873 25.3876 33.2278 25.4007 33.5982C25.4045 33.7068 25.4084 33.8167 25.4098 33.9283L25.411 34.0288L25.3104 34.0295C22.5873 34.0476 19.8576 34.0422 17.1289 34.0368C15.6515 34.0339 14.1744 34.031 12.6988 34.0318L12.5977 34.0319L12.5987 33.9308C12.658 28.2256 12.6766 22.5203 12.6728 16.8142C11.3553 15.8584 10.1342 14.6636 9.67873 13.2441L9.63751 13.1156L9.77242 13.1135C10.0579 13.1092 10.3393 13.1108 10.6194 13.1124C10.9968 13.1146 11.3721 13.1168 11.7523 13.1042L11.8139 13.1022L11.8434 13.1562C13.1449 15.5378 16.3016 17.1744 19.5817 17.1675C19.5817 17.1675 19.5818 17.1675 19.5818 17.1675L7.06384 7.65352ZM7.06384 7.65352L7.08749 7.58755M7.06384 7.65352L7.08749 7.58755M25.3079 33.8295C25.3061 33.7566 25.3035 33.6836 25.3009 33.6106C25.2888 33.2711 25.2766 32.9309 25.3454 32.5962C25.3517 32.5965 25.3579 32.5967 25.3642 32.597L25.3682 32.4971L25.2714 32.4722C25.2696 32.4792 25.2678 32.4861 25.2661 32.4931C23.3012 32.4174 21.3297 32.4272 19.3577 32.4371C17.7799 32.445 16.2019 32.4529 14.6268 32.417C14.6194 30.4717 14.6382 28.5262 14.657 26.5814C14.6848 23.7005 14.7126 20.8208 14.6553 17.9447L25.3079 33.8295ZM25.3079 33.8295C25.3083 33.8295 25.3087 33.8295 25.3091 33.8295L25.3098 33.9295L25.2098 33.9307C25.2098 33.9305 25.2098 33.9303 25.2098 33.9301C22.5203 33.9475 19.8249 33.9422 17.13 33.9368C15.6858 33.934 14.2417 33.9311 12.7987 33.9318C12.7987 33.9321 12.7987 33.9325 12.7987 33.9329L12.6987 33.9318L25.3079 33.8295ZM27.2977 14.8708C25.726 10.6488 20.4316 7.63437 14.9113 7.63437H14.6807L14.8383 7.46602C16.0095 6.21527 18.0003 5.52436 19.9262 5.61024C20.9046 5.60966 21.8829 5.61146 22.8612 5.61326C24.5076 5.61628 26.1537 5.6193 27.7995 5.61102L27.8059 5.61098L27.8059 5.61119C27.8392 5.61314 27.8527 5.60608 27.8574 5.60292C27.8624 5.59956 27.8689 5.59286 27.8749 5.57649C27.8882 5.5406 27.8885 5.49397 27.8889 5.43957C27.8889 5.43414 27.889 5.42863 27.889 5.42305C27.889 5.42288 27.889 5.4227 27.889 5.42252L27.2977 14.8708ZM27.2977 14.8708C27.3569 15.0759 27.43 15.2778 27.503 15.4759C27.5095 15.4938 27.5161 15.5116 27.5226 15.5293C27.5897 15.7112 27.6556 15.8899 27.7115 16.0695C27.8257 16.4364 27.8951 16.7975 27.8443 17.1701L27.2977 14.8708ZM7.08749 7.58755C8.64074 3.25575 13.9952 0.0923095 19.6656 0.100014M7.08749 7.58755L19.6656 0.100014M19.6656 0.100014C20.3653 0.101972 21.0648 0.102205 21.7641 0.102437C23.8089 0.103117 25.8522 0.103797 27.8949 0.147622L19.6656 0.100014ZM27.8274 18.802C27.8608 18.8019 27.8942 18.8018 27.9277 18.8017C27.9255 18.8351 27.9231 18.8684 27.9204 18.9017L27.8274 18.802ZM9.69129 7.50319L9.61918 7.66594L9.79569 7.64285C9.97925 7.61884 10.1951 7.6278 10.4279 7.6443C10.4791 7.64793 10.5312 7.65193 10.5838 7.65596C10.7665 7.66999 10.9551 7.68447 11.1341 7.68547C11.3647 7.68676 11.5921 7.66613 11.7852 7.58758C11.9793 7.50865 12.137 7.37174 12.2278 7.14986C13.5627 5.28739 16.0461 3.95256 18.7441 3.73655C20.2242 3.7095 21.7038 3.71598 23.1843 3.72247C23.9101 3.72566 24.6361 3.72884 25.3625 3.72807L25.4486 3.72798L25.4613 3.64277C25.519 3.25463 25.5074 2.86103 25.4961 2.47866C25.4925 2.35989 25.4891 2.2422 25.4877 2.12609L25.4866 2.02927L25.3898 2.02728C23.1526 1.98142 20.9024 1.9526 18.6642 2.03977L18.6642 2.03975L18.6621 2.03988C14.7017 2.28014 11.0274 4.48779 9.69129 7.50319ZM3.13131 9.51731L3.03291 9.51733L3.03134 9.61572C2.97393 13.2156 2.96676 16.8152 2.95958 20.4158C2.95567 22.3762 2.95176 24.3369 2.93975 26.2981L2.93913 26.3987L3.03965 26.3988C3.59237 26.3993 4.14514 26.4001 4.69795 26.401C6.51465 26.4037 8.33181 26.4065 10.1495 26.3988L10.2445 26.3984L10.2489 26.3034C10.2601 26.0654 10.2568 25.8278 10.2535 25.5939L10.2529 25.5507C10.2495 25.3017 10.2472 25.0568 10.2625 24.8128L10.2689 24.7102L10.1662 24.7066C9.18583 24.672 8.19968 24.6723 7.21534 24.6725C6.50857 24.6727 5.80274 24.6729 5.10065 24.6602C5.11127 23.0363 5.10936 21.4131 5.10745 19.7903C5.10408 16.9312 5.10072 14.0735 5.16589 11.2163C7.10798 11.2272 9.05072 11.226 10.9931 11.2248C12.3795 11.224 13.7656 11.2231 15.1513 11.2267C18.3946 11.263 21.3566 12.9736 22.6911 15.2805L22.7248 15.3388L22.7915 15.3294C23.0937 15.2871 23.3996 15.3001 23.7165 15.3135C23.7316 15.3142 23.7467 15.3148 23.7618 15.3154C24.0915 15.3293 24.4324 15.3407 24.7721 15.2799L24.8955 15.2577L24.8465 15.1424C23.4781 11.9186 19.4432 9.53601 15.1882 9.52975H15.188C13.3038 9.52939 11.4175 9.52646 9.53174 9.52353C7.39632 9.52022 5.26157 9.5169 3.13131 9.51731ZM14.8421 13.1626L14.6405 13.1746L14.7722 13.3277C15.8601 14.5922 17.8141 15.3105 19.6976 15.2799L19.9116 15.2764L19.7716 15.1145C18.6847 13.8571 16.747 13.0498 14.8421 13.1626ZM7.73337 14.6748L7.55302 14.3529L7.54614 14.7218C7.49988 17.204 7.51018 19.6881 7.52047 22.1692C7.52123 22.3541 7.522 22.5391 7.52274 22.724L7.52314 22.8227L7.62192 22.8235C8.468 22.8305 9.31533 22.8321 10.1618 22.8228L10.2618 22.8217L10.2607 22.7217C10.2532 22.0378 10.2577 21.3504 10.2621 20.662C10.2686 19.6642 10.2751 18.6644 10.2451 17.6709L10.2438 17.6286L10.2125 17.6C9.23621 16.7104 8.33743 15.7529 7.73337 14.6748ZM17.346 20.5816L17.2373 20.5699L17.2353 20.6792C17.2256 21.2247 17.2285 21.7699 17.2324 22.3154L17.2333 22.447L17.3598 22.4109C18.2422 22.159 18.9175 21.6375 19.5282 21.1137L19.5598 21.0866L19.5629 21.045C19.5677 20.9791 19.5733 20.9162 19.5817 20.8555L19.5963 20.7494L19.4894 20.7421C19.3093 20.7298 19.1295 20.7184 18.95 20.707C18.4134 20.673 17.8792 20.639 17.346 20.5816ZM22.6777 20.7372L22.6191 20.737L22.5902 20.7881C21.6074 22.5281 19.6132 23.865 17.3336 24.4563L17.2758 24.4713L17.2616 24.5293C17.1947 24.8023 17.1956 25.0748 17.2085 25.3383C17.2118 25.4051 17.2158 25.471 17.2197 25.5361C17.2316 25.7322 17.2431 25.9221 17.2335 26.1134L17.227 26.2429L17.3539 26.2163C20.6881 25.5166 23.6836 23.5434 24.8201 20.882L24.8789 20.7442L24.7292 20.7427C24.3185 20.7385 23.9073 20.7385 23.4966 20.7385C23.2233 20.7385 22.9502 20.7385 22.6777 20.7372Z" fill="#09B850" stroke="white" stroke-width="0.2"/>
</svg>
